# xmcd CD database file
#
# Track frame offsets:
#	150
#	16113
#	29014
#	55779
#	69002
#	83429
#	95333
#	108254
#	120550
#	132877
#	157943
#	171522
#	184390
#	200520
#
# Disc length: 2878 seconds
#
# Revision: 0
# Processed by: cddbd v1.4PL0 Copyright (c) Steve Scherf et al.
# Submitted via: CDex 1.50
#
DISCID=ac0b3c0e
DTITLE=Oscar Peterson - Where or When
DYEAR=1900
DGENRE=Jazz
TTITLE0=All The Things You Are
TTITLE1=China Boy
TTITLE2=Extended Blues
TTITLE3=I Get A Kick Out Of You
TTITLE4=Indiana
TTITLE5=Little Jazz
TTITLE6=Lover Come Back To Me
TTITLE7=Oscar's Arrangement
TTITLE8=Oscar's Boogie
TTITLE9=Tenderly
TTITLE10=The Sheik of Araby
TTITLE11=They Didn't Believe Me
TTITLE12=Three O'Clock In The Morning
TTITLE13=Where or When
EXTD=
EXTT0=
EXTT1=
EXTT2=
EXTT3=
EXTT4=
EXTT5=
EXTT6=
EXTT7=
EXTT8=
EXTT9=
EXTT10=
EXTT11=
EXTT12=
EXTT13=
PLAYORDER=
